<svg height="496pt" viewBox="0 0 496 496" width="496pt" xmlns="http://www.w3.org/2000/svg" xmlns:xlink="http://www.w3.org/1999/xlink"><linearGradient id="a" gradientUnits="userSpaceOnUse" x1="248" x2="248" y1="0" y2="496"><stop offset=".0051" stop-color="#f5cc3a"/><stop offset=".5187" stop-color="#eb5edc"/><stop offset=".8858" stop-color="#db5ec8"/></linearGradient><path d="m96 96h-16v-16h16zm32-16h-16v16h16zm32 0h-16v16h16zm324.601562-17.886719-24.273437 22.65625 21.550781 24.285157c9.105469 10.257812 14.121094 23.457031 14.121094 37.175781v101.769531c0 136.753906-111.246094 248-248 248s-248-111.246094-248-248c0-53.222656 16.640625-103.792969 48-146.511719v-53.488281h53.472656c42.71875-31.359375 93.304688-48 146.527344-48 53.296875 0 103.671875 16.6875 146.34375 48h.480469l39.542969-37.992188c6.710937-6.457031 15.542968-10.007812 24.855468-10.007812h.890625c19.789063 0 35.886719 16.097656 35.886719 35.878906 0 9.914063-4.160156 19.464844-11.398438 26.234375zm-252.601562 281.886719v40c0 4.414062 3.585938 8 8 8s8-3.585938 8-8v-96.351562c-1.886719.824218-3.824219 1.550781-5.839844 2.054687l-69.152344 17.289063 17.289063-69.152344c1.613281-6.496094 4.984375-12.433594 9.71875-17.167969l1.839844-1.839844c6.878906-6.886719 16.410156-10.832031 26.144531-10.832031.207031 0 .414062.054688.625.0625l27.695312-27.703125c-9.824218-5.230469-16.320312-15.519531-16.320312-26.992187 0-8.175782 3.183594-15.863282 8.96875-21.65625l3.71875-3.710938h-188.6875v224h88v-8c0-4.414062-3.585938-8-8-8h-40c-13.230469 0-24-10.769531-24-24s10.769531-24 24-24h56v16h-56c-4.414062 0-8 3.585938-8 8s3.585938 8 8 8h40c13.230469 0 24 10.769531 24 24v88c0 4.414062 3.585938 8 8 8s8-3.585938 8-8v-88c0-13.230469 10.769531-24 24-24s24 10.769531 24 24zm24-92c0-5.601562-2.175781-10.863281-6.144531-14.832031l-7.03125-7.03125c-3.894531-3.898438-9.304688-6.136719-14.824219-6.136719s-10.929688 2.238281-14.832031 6.144531l-1.847657 1.847657c-2.671874 2.679687-4.585937 6.046874-5.503906 9.734374l-10.824218 43.28125 43.289062-10.824218c3.679688-.917969 7.046875-2.832032 9.734375-5.511719l1.839844-1.839844c3.90625-3.910156 6.144531-9.3125 6.144531-14.832031zm8 100h168v-130.214844l-4.59375-2.625c-3.46875-1.984375-7.40625-3.007812-11.40625-3.097656v119.9375h-120v-102.039062l-24.390625 21.949218c-.746094 6.851563-3.378906 13.335938-7.609375 18.769532zm136-136h-84.039062l-3.960938 3.558594v100.441406h88zm-107.960938 0h-4.039062c-12.089844 0-22.511719-6.816406-27.953125-16.734375l-13.765625 13.773437c2.832031 1.617188 5.535156 3.464844 7.863281 5.792969l7.03125 7.03125c3.25 3.257813 5.746094 7.039063 7.566407 11.113281zm-5.519531-63.96875 91.648438-88.03125h-22.28125c-10.679688 0-20.726563 4.160156-28.285157 11.71875l-67.3125 67.3125c-2.769531 2.761719-4.289062 6.433594-4.289062 10.335938 0 4.832031 2.414062 9.21875 6.191406 11.914062 5.550782-7.632812 14.304688-12.785156 24.328125-13.25zm23.136719-.03125h45.734375c6.105469 0 11.914063-2.296875 16.371094-6.457031l75.757812-70.710938-28.191406-28.191406zm-179-104h234.664062c-35.410156-20.894531-75.382812-32-117.320312-32-41.832031 0-81.886719 11.097656-117.34375 32zm-66.65625 16v48h204.6875l47.59375-47.601562c.144531-.140626.304688-.261719.4375-.398438zm-48 184c0 42.808594 11.695312 82.910156 32 117.367188v-234.703126c-20.902344 35.457032-32 75.496094-32 117.335938zm430.480469 120h-182.480469v16c0 13.230469-10.769531 24-24 24s-24-10.769531-24-24v-40c0-4.414062-3.585938-8-8-8s-8 3.585938-8 8v88c0 13.230469-10.769531 24-24 24s-24-10.769531-24-24v-64h-102.480469c40.703125 67.078125 114.449219 112 198.480469 112s157.777344-44.921875 198.480469-112zm33.519531-120h-2.128906l-29.871094-17.070312v134.4375c20.304688-34.457032 32-74.558594 32-117.367188zm-31.375-152.3125-65.945312 61.550781c-7.433594 6.9375-17.121094 10.761719-27.289063 10.761719h-67.390625c-8.824219 0-16 7.175781-16 16s7.175781 16 16 16h127.496094c6.953125 0 13.824218 1.824219 19.839844 5.273438l44.664062 25.511718v-84.554687c0-9.796875-3.574219-19.222657-10.089844-26.550781zm31.375-59.808594c0-10.957031-8.921875-19.878906-19.878906-19.878906h-.890625c-5.167969 0-10.054688 1.96875-13.78125 5.542969l-14.578125 14.007812 28.351562 28.359375 14.457032-13.496094c4.015624-3.75 6.320312-9.046874 6.320312-14.535156zm-288 172.121094h-112v-64h112zm-16-48h-80v32h80zm-96 80h80v-16h-80zm0 32h80v-16h-80zm0 0" fill="url(#a)"/></svg>