<svg height="496pt" viewBox="0 0 496 496" width="496pt" xmlns="http://www.w3.org/2000/svg" xmlns:xlink="http://www.w3.org/1999/xlink"><linearGradient id="a" gradientUnits="userSpaceOnUse" x1="248" x2="248" y1="0" y2="496"><stop offset=".0051" stop-color="#f5cc3a"/><stop offset=".5187" stop-color="#eb5edc"/><stop offset=".8858" stop-color="#db5ec8"/></linearGradient><path d="m176 368h16v16h-16zm-32 16h16v-16h-16zm-32 0h16v-16h-16zm320-302.199219c41.265625 45.664063 64 104.527344 64 166.199219 0 136.742188-111.246094 248-248 248s-248-111.257812-248-248c0-59.367188 21.152344-116.296875 59.617188-161.207031-7.449219-7.839844-11.617188-18.007813-11.617188-28.847657 0-23.128906 18.816406-41.945312 41.9375-41.945312 11.207031 0 21.742188 4.359375 29.664062 12.289062l4.804688 4.808594c37.488281-21.59375 80.042969-33.097656 123.59375-33.097656h115.3125l68.6875 68.6875zm-64-17.800781h36.6875l-36.6875-36.6875zm-120-48c-24.625 0-48.886719 4.007812-72 11.542969v57.144531l135.535156 135.542969 9.890625 69.203125-69.203125-9.890625-76.222656-76.222657v100.679688h240v-224h-64v-64zm-104 59.3125-12.6875 12.6875 148.6875 148.6875 12.6875-12.6875zm154.34375 165.65625-25.375 25.375 29.597656 4.230469zm-191.03125-128.96875 148.6875 148.6875 12.6875-12.6875-148.6875-148.6875zm28.839844-67.160156 23.847656 23.847656v-35.28125c-8.152344 3.347656-16.105469 7.160156-23.847656 11.433594zm-72.152344 13.105468c0 6.925782 2.695312 13.4375 7.601562 18.34375l24.398438 24.398438 36.6875-36.6875-24.40625-24.398438c-4.898438-4.90625-11.410156-7.601562-18.34375-7.601562-14.304688 0-25.9375 11.640625-25.9375 25.945312zm184 422.054688c29.808594 0 58.289062-5.710938 84.496094-16h-156.496094v-16h32v-32h-88c-22.054688 0-40-17.945312-40-40v-208c0-16.375 9.921875-30.457031 24.046875-36.632812l-33.152344-33.152344c-35.4375 41.847656-54.894531 94.695312-54.894531 149.785156 0 127.929688 104.078125 232 232 232zm120-64v30.488281c14.351562-8.710937 27.648438-18.976562 39.742188-30.488281zm55.046875-16c8.671875-9.976562 16.554687-20.648438 23.441406-32h-232.914062l-24-16h-93.574219v24c0 13.230469 10.769531 24 24 24h104v48h128v-32h-111.464844v-16zm8.953125-293.320312v213.320312h-272v-132.679688l-43.015625-43.015624c-11.800781 1.503906-20.984375 11.496093-20.984375 23.695312v168h98.425781l24 16h236.863281c15.765626-31.304688 24.710938-66.617188 24.710938-104 0-51.496094-16.921875-100.921875-48-141.320312zm-224-74.679688h-16v16h16zm128 0h-112v16h112zm0 48v-16h-144v16zm-48 32h112v-16h-112zm0 32h112v-16h-112zm0 32h112v-16h-112zm48 32h64v-16h-64zm0 32h64v-16h-64zm0 32h64v-16h-64zm0 0" fill="url(#a)"/></svg>