<svg height="496pt" viewBox="0 0 496 496" width="496pt" xmlns="http://www.w3.org/2000/svg" xmlns:xlink="http://www.w3.org/1999/xlink"><linearGradient id="a" gradientUnits="userSpaceOnUse" x1="248" x2="248" y1="0" y2="496"><stop offset=".0051" stop-color="#f5cc3a"/><stop offset=".5187" stop-color="#eb5edc"/><stop offset=".8858" stop-color="#db5ec8"/></linearGradient><path d="m136 240h160c13.230469 0 24-10.769531 24-24v-3.054688l22.113281 11.054688h25.886719v-96h-25.886719l-22.113281 11.054688v-3.054688c0-13.230469-10.769531-24-24-24h-33.136719c.671875-2.574219 1.136719-5.222656 1.136719-8 0-17.648438-14.351562-32-32-32-8.953125 0-17.023438 3.710938-22.839844 9.65625-7.199218-10.648438-19.375-17.65625-33.160156-17.65625-22.054688 0-40 17.945312-40 40 0 2.734375.28125 5.414062.808594 8h-.808594c-13.230469 0-24 10.769531-24 24v80c0 13.230469 10.769531 24 24 24zm209.886719-96h6.113281v64h-6.113281l-25.886719-12.945312v-38.109376zm-41.886719-8v80c0 4.414062-3.59375 8-8 8h-40v-96h40c4.40625 0 8 3.585938 8 8zm-72-48c8.824219 0 16 7.175781 16 16s-7.175781 16-16 16-16-7.175781-16-16 7.175781-16 16-16zm-56-8c13.230469 0 24 10.769531 24 24s-10.769531 24-24 24-24-10.769531-24-24 10.769531-24 24-24zm-48 56c0-4.414062 3.59375-8 8-8h8.207031c7.3125 9.65625 18.785157 16 31.792969 16 13.785156 0 25.960938-7.007812 33.160156-17.65625 5.816406 5.945312 13.886719 9.65625 22.839844 9.65625 2.777344 0 5.425781-.464844 8-1.136719v89.136719h-104c-4.40625 0-8-3.585938-8-8zm96 24h-80v48h80zm-16 32h-48v-16h48zm80-32h-16v-16h16zm-16 32v-16h16v16zm-24-192c-42.753906 0-84.785156 11.105469-121.792969 32h-78.207031v69.496094c-31.359375 42.710937-48 93.273437-48 146.503906 0 136.753906 111.257812 248 248 248 42.632812 0 84.632812-11.097656 121.664062-32h70.335938c13.230469 0 24-10.769531 24-24v-70.335938c20.902344-37.046874 32-79.039062 32-121.664062 0-136.753906-111.257812-248-248-248zm0 16c29.808594 0 58.289062 5.710938 84.496094 16h-168.984375c26.792969-10.457031 55.449219-16 84.488281-16zm117.367188 32c18.722656 11.023438 35.746093 24.609375 50.632812 40.257812v167.742188h-352v-208zm-157.367188 232v24h-49.472656c-3.3125-9.289062-12.113282-16-22.527344-16s-19.214844 6.710938-22.527344 16h-33.472656v16h33.472656c3.3125 9.289062 12.113282 16 22.527344 16s19.214844-6.710938 22.527344-16h49.472656v32h-144v-80h145.472656c-.898437 2.511719-1.472656 5.183594-1.472656 8zm-64 32c0 4.414062-3.59375 8-8 8s-8-3.585938-8-8 3.59375-8 8-8 8 3.585938 8 8zm-96-181.34375v234.710938c-20.304688-34.457032-32-74.558594-32-117.367188 0-41.847656 11.105469-81.886719 32-117.34375zm200 349.34375c-84.039062 0-157.777344-44.921875-198.488281-112h158.488281v72c0 13.230469 10.769531 24 24 24h100.351562c-26.785156 10.464844-55.398437 16-84.351562 16zm200-40c0 4.414062-3.59375 8-8 8h-208c-4.40625 0-8-3.585938-8-8v-160c0-4.414062 3.59375-8 8-8h208c4.40625 0 8 3.585938 8 8zm16-107.65625v-52.34375c0-13.230469-10.769531-24-24-24h-8v-149.070312c30.0625 39.117187 48 88.03125 48 141.070312 0 28.953125-5.535156 57.558594-16 84.34375zm-184 88.601562 121.886719-60.945312-121.886719-60.945312zm16-96 70.113281 35.054688-70.113281 35.054688zm0 0" fill="url(#a)"/></svg>